<svg xmlns="http://www.w3.org/2000/svg" width="2281.3" height="793.5" viewBox="0 0 2281.3 793.5"><style>.st0{fill:#03853e}.st1{fill:#8cc33f}.st2{fill:#f8d7a8}.st3{fill:#f8a635}.st4{fill:#f7a736}.st5{fill:#ee5d5c}.st6{fill:#bc311c}.st7{fill:#8dc340}.st8{fill:#018e42}.st9{fill:#028e42}.st10{fill:#018d42}.st11{fill:#008d41}</style><path class="st0" d="M669.2 0c9.8 3.2 19.3 6.7 26.8 14.2 11.7 11.7 17.6 25.2 13.5 42-.8 3.1.2 18.1 1.4 20.9 4.1 9.9 4.5 19.6-2.7 28.2-7.9 9.3-18.4 10.7-29.6 7.8-6.7-1.7-12.9-4.9-17.8-9.9-2.3-2.3-4.3-2.3-6.9-1.1-11.1 5-20.8 12-29.4 20.5-3.8 3.7-7.7 7.4-11.3 11.3-2.1 2.3-3.6 2.9-6.2.5-6.8-6.3-13.8-12.4-20.9-18.3-2.7-2.2-1.6-2.8.7-4.1 19.2-10.3 26.3-27.4 26.9-48.2.1-2.8-1.6-3.4-3.5-4.3-8.9-4.5-15-11.5-18.3-20.8-3.6-10.1-2.5-19.8 4.9-27.9C604.9 2 615.7-.4 626.1 4c8.7 3.7 15.6 4.3 23.1-1.4 1.8-1.4 4.7-.7 6.5-2.5 4.6-.1 9.1-.1 13.5-.1zm-50.3 96.8c9.7-8.1 17-17.9 23.1-28.7 1.7-3.1-.1-4.3-1.7-5.9-.7-.7-14.3 1.3-14.7 2.2-.3.7-.3 1.7-.3 2.5.6 10.5-.5 20.7-6.4 29.9zm17.9-5.1c.4.4.8.9 1.2 1.3 3.3-1.7 6.6-3.5 10.2-4.3 1.3-.3 1.6-1.2 1.3-2.3-.4-1.3-.6-2.9-1.5-3.7-.8-.7-1.7.6-2.5 1.2l-8.7 7.8z"/><path class="st1" d="M343.6 381.6c-.8 6.9-1.3 14.7-6.2 21.2-2.5 3.4-5.9 5.4-9.9 6-18 2.6-35.8 6.4-53.5 10.9-33.6 8.5-66.7 18.8-98.5 32.6-17 7.4-33.8 15-49.4 25.2-4.2 2.8-9.6 2.5-12.9-.5-3-2.7-4-9.4-1.8-14 2.8-6 7.1-11.3 7.9-18.3 1.4-11.3-6-17.9-16.9-14.3-3.3 1.1-6.5 2.3-10 2.5-9.4.4-13.7-6.2-9.4-14.5 3.2-6.3 8.9-9.9 14.9-12.9 15.5-7.9 31.8-13.6 48.2-19.2 27.3-9.2 55.1-16.9 83.2-23.5 22.7-5.4 45.6-10.1 68.6-13.9 4.4-.7 8.9-1.3 13.2-2.4 14.3-3.7 23.5 3.3 28.7 15.3 2 4.7 3.8 14 3.8 19.8zM59.6 365.7c-8.4 0-14.3.9-20-1-12.1-4-17.9-14.5-15.8-28.2 1.8-11.5 11-20 23.2-20.2 18.6-.4 37.1-1.6 55.6-3.3 28.5-2.6 57-6.3 85.3-10.8 30.5-4.9 60.6-11.8 90.6-19.3 5.3-1.3 10.1-4.4 15.8-4.1 4.1.2 8.3.6 10.1 4.8 2.1 4.7-.6 8.2-4.1 11.2-3.2 2.6-6.4 5.1-8.4 8.9-3.8 7.4-.1 13.8 8.2 14.6 5.9.5 11.6-.9 17.4-1.4 3-.2 5.8.1 8.6 1 2.5.8 5 1.6 5.5 4.7.6 3.3-1.1 5.8-3.5 7.5-4.2 3.1-8.9 5.3-13.9 6.5-22.6 5.8-45.7 9.3-68.8 12.8-20.4 3.1-40.9 5-61.4 7.5-16.4 2-32.8 3.2-49.3 4.3-25.8 1.7-51.8 3.1-75.1 4.5z"/><path class="st0" d="M723.9 289.2c.8-11.8-1.3-22-6.1-31.5-7.2-14.3-19.2-22.9-33.7-28.7-2.6-1-3.8.4-5.5 1.6-13.9 9.6-32.9 9.9-46.6.7-16.2-11-19.9-33.1-8.3-49.6 2.2-3.1 3.2-5.2 1.4-9.4-5.1-11.9 4-24.8 18.1-26.1 3.3-.3 4.8-1.4 6-4.2 5-11.2 18.2-18.6 31.2-17.8 12.9.8 21.9 7.8 25.8 20.6 1.2 3.9 3.5 2 5.1 1.5 8.1-2.3 16-2 23.8.9 19.3 7.2 23.4 29.1 8.5 44.4-5 5.1-10.9 9-17.7 11.1-3.4 1-4.1 2.6-3.5 5.9 3.1 18 12.2 33 22.8 47.3 2.4 3.3 7 6.9 6.7 9.8-.4 3-5.6 5.4-8.8 8-5.9 4.8-12 9.8-19.2 15.5zm-11.7-59.9c-1.7-7.7-4-15-4.8-22.6-.1-1.1-.6-1.9-1.8-2.1-3-.6-6.2-2.3-8.9-1.7-2.4.5-1.3 4.5-2.3 6.8-.8 1.7-1.4 3.5-2.2 5.2-.7 1.5-.7 2.5 1.1 3.3 6.8 2.6 13.1 6.3 18.9 11.1z"/><path class="st2" d="M187.7 288.9c-9.4-7.9-17.8-14.9-26.2-21.9-1.8-1.5-.9-2.5.1-3.9 3.3-4.6 6.4-9.3 9.9-13.7 6.9-8.7 11.3-18.7 15.3-28.9 1.5-3.8 2.4-7.8 3.1-11.8.6-3.2-.3-5-3.9-6.4-11.6-4.4-20.9-11.6-24.9-24.1-4.3-13.7 3.2-27.6 17-31.5 7.5-2.1 15.1-3.5 22.7-.4 3.4 1.4 5.2-.4 6.1-3.5 3.9-13.5 16.9-19.7 29.6-18.7 11.6.9 21 6.5 26.7 17 1.8 3.4 3.7 5.5 7.8 5.5 11 0 22.2 13.1 16.7 26.4-1.4 3.3-1.2 5.2.7 7.8 15.3 20.6 6.6 50.1-22.1 56.4-11 2.4-22.4.8-31.8-6.6-5.4-4.3-9.7-.3-13.6 1.8-13.4 7-23.7 17.3-28.8 31.8-2.7 7.4-3.9 15.2-4.4 24.7zm11.9-58.4c4.1-3.4 8.1-6.5 12.6-9.1 2.6-1.5 6.4-2.1 8.1-4.2 2.1-2.7-1.8-5.4-2.2-8.4-.1-.3 0-.7-.1-1-.3-2.1 0-5.5-2.9-4.9-3.2.7-8.1-.4-9.3 3.7-2.4 7.8-3.7 15.9-6.2 23.9z"/><path class="st0" d="M746.9 221.4c6-9 11.7-16.9 15.8-25.8 9-19.3 12-38.9 3-59.2-1.5-3.3-3.4-5.1-7-5.8-7.7-1.5-14.7-4.6-20.5-10-4.5-4.3-6.9-9.3-6-15.6.3-2 .2-3.6-1.7-4.9-8.4-5.8-12.9-13.7-10.2-23.8 2.9-10.5 11.2-15.6 21.2-18.1 7.2-1.8 14.4-1.5 21.3 1 2.5.9 3.5.5 4.5-2 2.6-5.8 7.4-8.9 12.9-8.4 5.9.6 9.9 4.1 11.8 9.4 1.1 3.2 2.1 3.7 5.3 2.4 19.2-7.5 38.1 6 39.3 22.1.2 3 2 3.1 4.2 3.2 7.9.5 15.1 2.9 21.2 8.2 11.3 10 10.3 25.3-2.4 33.6-9.7 6.4-20.4 7.8-31.6 5-3.6-.9-6.1-.4-8.9 2-15.8 13.5-21.8 31.6-23.9 51.4-1.1 10.6-1.2 21.3.3 31.9.3 2.4.1 3.5-2.6 3.5-14.9-.2-29.9-.1-46-.1zm41.4-59.8c2.4-5.8 4.1-10.7 6.5-15.3 3.9-7.5 8.9-14.2 15-20.2 1.8-1.8 1.4-3 .1-4.8-1.9-2.5-2.9-.3-4 .6-4.6 3.8-9.8 6.5-15.5 7.8-4 .9-5 2.3-4 6.2 2.2 8.1 2.5 16.3 1.9 25.7z"/><path class="st2" d="M140.4 221.1c-6.5 0-13.1-.2-19.6.1-3.7.1-4.4-1.5-4-4.7 2.3-17.9 1.3-35.6-4.2-52.9-3.8-11.8-10.5-21.8-20.2-29.7-3-2.4-6-1.7-9.2-1-12.4 2.6-23.9.5-33.4-8.3-14.1-13-5.5-29.5 8.7-35.6 4.3-1.9 8.9-3.6 13.9-3.3 2.2.2 2.7-1 3.2-3 3.8-15.2 12.2-22.8 27.6-24.5 4.3-.5 8.9.6 13 2.5 2.5 1.2 3.9.8 4.5-1.8 1.5-6.3 5.8-9.7 11.9-10.1 5.9-.4 10.3 2.8 12.4 8.2 1.2 3 2.6 2.7 5.1 2 12-3.5 23.3-2.3 33.7 5.1 12.1 8.5 12.4 25.4.5 34.2-2 1.5-4 2.6-3.6 5.6 1.7 13-9.5 20.7-18.4 24.2-.8.3-1.7.3-2.4.7-3.7 2.1-9.4.9-11.5 4.9-3.5 6.6-6.1 13.7-6.7 21.2-1.6 19.8 4.7 37.5 15.7 53.7 2 3 3.9 6 5.8 9.1 1.4 2.3.9 3.4-2 3.4h-20.8zm-17-62.1c.2-8.4.8-16.8 3.1-24.9.7-2.4-.2-3.5-2.5-4-6.3-1.2-11.9-4-16.8-8.1-1.2-1-2.6-3.4-4.6-.7-1.4 2-1.4 3.8.4 5.5 4.7 4.3 8 9.7 11.7 14.8 3.9 5.3 5.5 11.6 8.7 17.4z"/><path class="st0" d="M773.6 254.9c12.9 1.1 23.9-2.5 33.6-9.7 7.3-5.4 12.3-12.8 17-20.5 1.4-2.4-.4-3.5-1.3-5-5.9-9.3-8.1-19.3-5.4-30 2.7-10.5 9.3-17.6 20.1-19.9 10.7-2.3 20.3 1.5 26.7 9.7 5.1 6.5 9.8 8.9 18.2 8.9 12.9 0 23 7.6 30.1 18.2 10.2 15.2 13.5 31.4 5.5 48.8-2.5 5.4-6.2 10.1-11.4 13-3.3 1.9-4.2 3.8-3.7 7.7 1.3 9.4-1 18.2-7.7 25.3-9.6 10.1-24.5 9.8-36.2-.5-5.7-4.9-10.1-10.8-12.2-18.1-.9-3.2-2.8-4.3-5.8-4.5-13.7-.9-27.1 1.2-40.1 5.2-2 .6-4 1.1-5.9 1.7-9.1 2.6-9.1 2.6-12.5-6.4-3-7.6-5.8-15.3-9-23.9zm40.3.9c.6.4 1.1 1 1.4.9 11.6-2.8 22.2-8 32.1-14.5 1.7-1.1 1.5-2.4 1.2-4-.4-1.7-1-3.2-3.2-3.4-2.6-.2-5.2-.6-7.4-2.1-3.2-2.1-4.6-1-6 2.2-3.9 8.6-9.2 16.2-18.1 20.9zm14.4 7.3c4.2 0 7.5-.5 10.6.1 4.8 1 6.6-.4 6.1-5.5-5.5 1.3-10.7 2.8-16.7 5.4z"/><path class="st1" d="M142.6 490.2c.1-12.1 5.9-21.8 14.2-23.1 5.4-.9 10.9-1.5 16.3-2.1 22-2.4 43.8-6.4 65.4-11.2 24-5.3 47.6-12 70.7-20.1 10.3-3.6 20.4-8.2 30.4-12.5 5.5-2.4 10.3-2.3 13.3 1 2.6 2.9 1.9 8.8-1.6 13.3-2.2 2.8-4.6 5.5-5.7 9-3 9.5 2.6 15.9 12.3 13.9 3.9-.8 7.6-2.1 11.6-1.9 3 .1 5.7 1 7 3.6 1.4 2.9.9 6.1-1.2 8.7-3.4 4.1-7.9 6.5-12.7 8.4-14.2 5.6-29 9.3-43.8 13.1-17.6 4.6-35.5 8.2-53.3 11.4-20.1 3.6-40.2 7.1-60.5 9.5-13 1.6-25.9 3.5-38.8 5-13 1.4-22.4-8.1-23.5-23.5-.1-.8-.1-1.7-.1-2.5z"/><path class="st2" d="M19.6 268.4c1.6-5.1-1.5-8.4-6.2-12C2.3 248-1 235.7.2 222.6c1.4-16 9-29 22.4-38.1 7.3-5 15.5-8.2 24.6-6 3.8.9 5.2-1.7 6.8-4 6.3-9.1 14.6-15.1 26-15.3 10.7-.2 21 8.1 24.3 18.3 3.9 11.9 1.7 22.6-5.1 32.7-1.4 2.1-1.5 4-.2 6.2 8.3 14.3 19.7 24.3 36.2 28 2.9.7 5.8.6 8.7.5 3.9-.1 4.4 1.9 3.3 4.9-2.8 7.9-5.9 15.6-8.6 23.5-1.5 4.3-4.5 4.1-7.8 3.3-5.3-1.4-10.6-2.8-15.7-4.6-11.3-3.8-22.9-3.5-34.6-3.4-3.3 0-3.8 2.5-4.7 4.6-3.5 8.4-8.2 15.6-16.2 20.6-8.3 5.3-17.1 6.9-25.7 2.7-9.7-4.7-14.2-13.4-14.3-24.3v-3.8zm92-20.9c-3.2-1.9-6.6-3.4-9.3-6.1-5.2-5.1-9.3-10.9-12.3-17.4-1.2-2.7-2.4-3.5-5-1.7-2 1.4-4.4 1.8-6.8 2.2-2.7.4-4.2 2-4.7 4.7-.4 2.7 1.6 3.5 3.4 4.5 4.7 2.6 9.3 5.7 14.4 7.7 6.6 2.4 13.1 5.3 20.3 6.1zm-18.8 4.7c-3.5-1.2-7-2.3-10.5-3.5-1.4-.5-3-1.5-4.2-.2-1.1 1.2-.9 3-.2 4.3.9 1.7 2.8 1.3 4.1.9 3.5-.9 7.1-.5 10.8-1.5zM346.1 45.5c1.2 14.6-11.8 26.1-24.6 30.6-3 1.1-7.1.1-9 2.8-2.6 3.6-3.3 8.3-3.6 12.7-1 12.6-.4 25 7.3 36 1.3 1.8 2.4 3.7 4.1 5.3 4.3 4.3 4.4 4.5-1.1 6.8-7.9 3.3-15.9 6.1-23.8 9.3-2.9 1.2-4 .4-5.4-2.5-4.6-9.2-9-18.4-14.7-26.9-4.2-6.4-9.6-11.6-15-16.8-1.2-1.2-2.4-1.7-4.1-.9-10.8 5.1-21.8 6.3-33.3 1.6-11.8-4.8-18.2-17.6-14.3-30 2.2-7.2 6.8-12.6 12.9-16.8 2.1-1.4 3.2-3.1 2.7-5.6-3.2-14.2 2-26 12.3-35C252 2.5 269.9-2.3 289.8 6.3c5.7 2.4 10.9 5.8 14 11.4 2.1 3.9 5.1 2.7 8 1.9 10.2-3 28.5 3.3 33.3 16.4 1 3.1.8 6.2 1 9.5zm-50.7 64.2c.6-1.1.9-1.5.9-1.7-2.2-10.3-.3-20 3.7-29.5.8-1.9 0-3.2-1.7-3.5-3.1-.7-5.6-2.3-8.2-4.1-1.7-1.1-3.7-1.1-5.4-.1-1.5 1-1.9 2.8-1.5 4.6 2.6 11.8 6.2 23.1 12.2 34.3zm-16.3-10.2c.3-.2.7-.3 1-.5-1.4-3-2.8-6-4.3-8.9-.7-1.3-1.4-3.1-3.2-2.8-.8.2-1.4 1.7-2 2.7-1.2 1.9.3 2.8 1.5 3.7 2.2 2 4.6 3.9 7 5.8z"/><path class="st3" d="M846 395.1c-1.9 14.5-3.7 27.8-5.5 41-.3 2-.4 3.9-3.8 2.9-19.9-5.5-40-10.7-59.7-17-26-8.4-51.5-18.1-76.6-29.1-32.7-14.4-63.6-31.7-92.9-52-9.1-6.3-17.6-13.4-25.9-20.9-2.2-2-3.5-3.9-.8-6.9 2.9-3.3 4.4-9.4 7.7-10.4 3.1-.9 7.7 3.2 11.6 5.3 25.4 13.5 51.8 24.6 78.7 34.7 26.6 10 53.7 18.6 80.9 26.6 18.7 5.5 37.7 10 56.6 14.8 8.3 2.1 16.6 4.3 25 5.7 4.4.8 5.4 2.6 4.7 5.3z"/><path class="st0" d="M562.8 224.9c.3-14-.5-27.1-4.1-39.7-4.9-16.9-14.1-30.8-28.7-40.9-2.5-1.8-4.7-2-7.6-.9-7.6 2.8-15.5 3.4-23.3.8-4.8-1.6-8.8-4.6-11-9.5-.9-1.9-1.8-3.4-4.4-3.6-12.5-1-19.9-9.2-21.7-19.3-1.8-9.6 4.9-21.5 14.8-26.9.3-.2.6-.3 1-.4 6.7-2 11.7-4.2 11.3-13.6-.3-7.6 10.9-10.3 17.9-4.6 3.6 3 4.6 2.2 7-1.2 8.7-12.3 28.4-12.8 39.4-.8 3 3.3 5 3.1 8.5 1.5 9.3-4.3 18.8-4.5 27.5 1.3 11.3 7.6 12.3 23.3 2.7 34.4-4.5 5.2-10.1 8.8-16.7 10.6-2.6.7-3.8 2-4.6 4.7-4.9 17.9-.2 34.4 7.4 50.4 5.3 11.2 11.9 21.7 19.9 31.2 1.4 1.7 2.7 2.9-.2 4.6-11.6 7-22.9 14.2-35.1 21.9zm-3.5-75.4c-.7-8.7-2.1-17-1.6-25.5.2-3.1.5-6.1 1-9.2.4-2.7-1.6-3.1-3.3-3.6-2.4-.7-1.9 1.6-2.1 2.5-1.4 5.6-4.4 10.4-7.9 14.8-.8 1-2.9 2.1-1.1 3.8 5.2 5.3 10.1 11.2 15 17.2z"/><path class="st2" d="M334 239.6c-2.6-2.8-4.9-5.3-7.1-7.8-6.5-7.5-12.8-15.2-19.3-22.7-2.1-2.4-2.3-3.7.4-5.6 10.2-7.3 19.8-15.5 27.5-25.4 9.4-12.1 16.1-25.4 15.7-41.4-.1-3-.8-5-3.4-6.9-8.8-6.2-14.4-14.6-16-25.3-1.7-11.3 6.6-24.6 21.5-22.3 7.7 1.2 13.9 4.5 19.4 9.6 2 1.8 3.7 2.4 5.9.8 13.9-9.5 31.4-.8 37.7 13.5 1.4 3.2 2.6 4.2 6.4 3.5 8.6-1.5 12.3.5 15.3 6.9 1.3 2.8 1.6 5.7 0 8.4-1.8 3.1-.7 5.2 1.9 6.9 11.4 7.3 17 17.6 15.6 31.2-1.2 11.9-13.9 18.4-23.9 15.9-3-.7-4.8-.5-7.2 1.7-5.7 5.1-12.4 6.1-19.7 3.6-3.7-1.3-7.9-2.2-10.6-4.9-6.8-6.7-13.4-3.6-20.1-.4-20.6 10-30.3 28-36.6 48.8-1.1 3.8-1.2 7.8-3.4 11.9zm18.6-66.6c5.5-5.3 11.8-9.2 18.3-12.7 1.7-.9 3-2.4 1.9-4.7-2.7-5.6-4.8-11.3-4.2-17.7.1-1.3-.4-2.4-2-2.4-1.2-.1-2.4 0-3.2 1.2-.8 1.2-1 2.6-.9 4 0 5.7-2 11-3.5 16.4-1.6 5.5-4.7 10.3-6.4 15.9z"/><path class="st4" d="M578.3 267.5c21.9.1 43.5 3.3 65.1 6.5 21.1 3.1 41.8 7.8 62.3 13.4 29.7 8.1 59 17.6 87.5 29.4 24.7 10.3 48.9 21.7 72.7 34 2.6 1.3 3.3 2.6 2.8 5-2.3 9.7-4.6 19.3-7 28.9-1 4.2-3.5 1.7-5 .8-10.6-5.6-20.9-11.5-31.6-16.9-23.8-12.1-48.3-22.5-73.2-32-23.5-9-47.2-17.2-71.4-23.9-26.1-7.2-52.3-13.5-79.1-17.6-10-1.5-20-3.3-30.1-4.2-3.1-.3-5-1.5-5.3-5-.4-5.1-1.2-10.2-1.9-15.3-.3-2.2.8-3.2 2.9-3.2 3.7.1 7.5.1 11.3.1z"/><path class="st3" d="M518.6 417.2c8 2.3 16.1 4.6 24.1 7 38.6 11.6 75.7 26.9 110.8 46.7 28.5 16.1 54.6 35.4 76.8 59.7 2.1 2.2 2.3 3.8.5 6.1-2.1 2.7-4.1 5.5-5.9 8.4-1.7 2.6-3.1 2.7-5.8 1-26.1-16.4-53.8-29.5-82.4-40.9-24.9-9.9-50.3-18.9-76.2-26.1-17.3-4.8-34.6-9.4-52-14-2.6-.7-3.2-1.3-2.5-4 3.2-13.7 6.2-27.4 9.2-41.1.5-2 1-3.4 3.4-2.8z"/><path class="st4" d="M518.3 392.5c.9-6.6 1.7-12 2.4-17.5.3-2.4 1.5-3 3.9-2.5 42.9 7.8 83.1 23.1 121.6 43.3 42.6 22.3 81.1 50.3 117 82.1 1.6 1.4 1.9 2.3.9 4.3-4.4 8.3-8.9 16.6-12.8 25.1-2 4.4-3.6 3.8-6.5 1-20.4-19.7-42.7-37.2-65.8-53.7-34.5-24.7-71.3-45.4-110.4-61.9C554 406.5 539.1 401 524 396c-2.1-.7-6-.4-5.7-3.5z"/><path class="st5" d="M540.5 276.7c-9.9-6.8-19.4-10-29.9-9.2-3.8.3-7.5.8-11.2 1.2-35.7 3.4-56.8-30.3-44.1-61.1 11.2-27.2 42.1-42.9 69.4-34.2 23.8 7.6 35.5 34.6 25.3 58.3-1.8 4.2-3.8 8.4-6 12.5-5.7 9.7-7.7 20-3.5 32.5zM366.2 425.5c9.7-12.5 9.9-25.5 7.5-39.2-5.1-29.9 18.6-54.2 48.6-50.4 31.9 4.1 55.8 39.9 48 68.8-6.6 24.8-31.6 38.6-56.4 29.9-5.8-2-11.5-4.6-16.9-7.4-9.6-5.1-19.4-5.1-30.8-1.7zM386.4 334.5c-3-9.1-7.3-17-14.8-22.4-3.9-2.8-8.1-5.1-12.1-7.7-15.9-10.4-24.4-25-21.4-44 3-19.4 16-31.3 34.1-36.9 18.7-5.8 36.8-3.7 52.9 8 13.4 9.8 20.7 23.1 18.8 39.9-2 17.6-12.5 29.2-28.2 36.6-8.8 4.1-18.1 7.7-23.7 16.4-2.1 2.9-3.5 6.2-5.6 10.1z"/><path class="st6" d="M486.3 639.4c.1-20.6 11.1-35.8 29.9-39.7 13.2-2.8 25.7.6 37 7.8 21.9 13.9 34.5 33.8 32.7 60.2-1.8 26.5-23 41-49 35.3-27.8-6.3-50.7-35.1-50.6-63.6zM367.7 621.8c21.2 2.1 39.1 15.1 50.6 37.3 6.2 11.9 8.5 24.7 5.6 38-4.7 21.4-23.4 33-46.1 29.1-32.8-5.6-58.8-43.2-51.7-74.8 4.2-18.1 18.9-29.8 41.6-29.6zM682.8 579.7c-.1 32.9-30 63.6-62.5 64.5-22.4.6-40.2-17.4-39.5-39.8 1-32.2 27.2-60.2 59.4-63.5 23.9-2.5 42.7 14.7 42.6 38.8zM482.6 598.8c.1 28.4-21.7 45.9-49.5 39.7-29-6.5-52-37-50.3-66.7 1.6-25.7 22-41.4 47.3-36.4 29 5.7 52.4 34 52.5 63.4zM423.1 739.9c1-16.9 7.2-35 23.3-48.5 21.8-18.3 50.6-11.9 62.7 13.8 11.6 24.6 4.1 59.3-16.6 76.9-24.2 20.6-55.1 12.4-65.8-17.6-2.6-6.8-3.7-13.9-3.6-24.6z"/><path class="st7" d="M380 515c.1 9.2-4.4 15.5-13.5 17.4-21.5 4.6-42.6 10.5-63.6 17-29.1 8.9-57.2 20.1-84.3 34-1.4.7-2.8 1.4-4.2 1.9-2.9 1-5.6.3-7.5-1.8-2.1-2.4-1.3-4.9.4-7.5 1.8-2.8 4.3-5.4 4.9-9 1-5.8-2.8-9.9-8.6-8.6-3.3.7-6.7 1.7-9.9 2.7-3.6 1.1-7.1 1-9-2.6-1.9-3.5 1.2-5.7 3.6-7.6 8.3-6.7 18.4-9.9 28.1-13.5 36.1-13.2 73.1-23.7 110.5-32.5 11-2.6 22.1-5.2 33.2-7.2 11.5-2.3 19.8 5.2 19.9 17.3z"/><path class="st4" d="M556.9 352.8c10.8 1.5 21.3 4.4 31.9 7.4 20.1 5.6 39.9 12.3 59.1 20.4 23.3 9.8 45.9 21 68.1 33.2 29.1 16 56.4 34.7 83.4 53.9 2.3 1.6 2.9 3 1.5 5.8-2.8 5.8-5 12-7.2 18-1.4 3.9-3.1 4.8-6.6 1.8-7.8-6.7-16.2-12.5-24.6-18.4-27.5-19.5-55.9-37.3-85.7-53-33.4-17.7-67.9-32.8-103.5-45.4-5-1.8-10.1-3.3-15.1-4.8-2.8-.8-4.5-2.1-4.2-5.4.2-3.6.1-7.2 0-10.8-.2-2.1.2-3.6 2.9-2.7z"/><path class="st6" d="M501 538.7c.3-11.9 3.2-23.2 10.7-33 11.3-14.7 31-18 46.5-7.8 23.7 15.7 32.4 52.5 18.2 77.2-13.4 23.3-40.9 25.9-59.1 5.7-10.8-11.9-15.8-25.9-16.3-42.1zM312.3 557.6c22.3.1 36.1 16.7 33.6 40.4-2.5 23.8-25.4 46.9-49.2 49.6-24.1 2.7-40.7-13.1-39.6-37.7 1.3-27 28.1-52.4 55.2-52.3z"/><path class="st5" d="M449.4 309.4c13.6 1 22.3-5.2 31.2-12.2 21.5-16.9 49.4-6.7 56 19.9 4.7 19-3.5 39.9-19.8 50.4-22.1 14.2-49.2 2-53.8-24.4-.2-.8-.3-1.7-.3-2.6-1-11.3-2.5-22.3-13.3-31.1zM481.2 433.5c.1 1.5.3 2.2.2 2.8-1.5 9.8 1.9 18 7.1 26.2 14.4 22.5 4 48.9-21.4 54.4-10.5 2.3-20.9.8-30.5-4.4-14.2-7.6-23.3-18.8-24.6-35.5-1.6-20 14.7-35.1 33-36.1 1.7-.1 3.4-.2 5.2-.1 10.8.8 21.5.7 31-7.3z"/><path class="st8" d="M1200.4 280.7c-1.4 2.3-1.6 4.4-2.1 6.4-11.2 45.8-22.4 91.6-33.6 137.5-6.3 25.6-12.5 51.3-18.7 77-.4 1.8-1.1 2.7-3.2 2.8-12.7.3-25.3.7-38 1.1-2.6.1-2.7 0-3.1-2.5-5.4-28.7-10.8-57.4-16.3-86.1-7-36.7-13.9-73.3-20.9-110-1.5-7.8-2.9-15.7-4.4-23.5-.1-.4 0-1-.7-1.2-.1 2.5-.3 4.9-.4 7.4-.2 13.9-.3 27.7-.5 41.6l-.9 60.2c-.2 10.5-.3 20.9-.5 31.4-.2 17-.5 34.1-.7 51.1 0 2.2-.1 4.5-.2 6.7-.1 1.5.5 2 2 2 6.1-.1 12.2 0 18.3 0 1.1 0 2.1.1 3.2 0 1.9-.2 2.3.7 2.3 2.4.2 12.2.5 24.4.9 36.6 0 1.6-.4 2.1-2 2.1-11.2-.3-22.3-.5-33.5-.7-6.5-.1-12.9-.2-19.4-.4-14.9-.3-29.8-.7-44.7-1-2.4-.1-2.5-.1-2.5-2.6v-34.6c0-2.5.1-2.5 2.5-2.5 9.7.2 19.5.5 29.2.7 4.4.1 3.8.5 3.8-3.7.2-26.3.3-52.6.8-78.9.4-23.4.5-46.8.7-70.1.2-21.5.5-43 .7-64.5v-2.1c-.1-2.5-.1-2.6-2.5-2.7-4.7-.3-9.4-.5-14.1-.8-6.1-.3-12.2-.6-18.3-1-.5 0-.9-.2-1.4-.1-1.8.1-2.4-.8-2.3-2.6.2-5 .3-10.1.4-15.1l.6-20.1c0-1.5.4-2.2 2-2 .7.1 1.4 0 2.1 0h99.1c.7 0 1.4.1 2.1 0 1.4-.2 2.1.4 2.3 1.9.8 5 1.7 9.9 2.5 14.9 3.5 20.7 6.9 41.4 10.4 62.2 3.4 20.4 6.8 40.8 10.2 61.1l9.6 57c1.1 6.4 2.1 12.7 3.2 19.5 1.6-3 1.9-6 2.5-8.8 11.7-49.4 23.4-98.9 35.1-148.3 4.8-20.2 9.5-40.4 14.3-60.6.7-3.1.7-3.2 3.8-3.2 9.7-.2 19.5-.4 29.2-.5 10.7-.1 21.4 0 32.1-.3 9.4-.3 18.8-.2 28.2-.5 2.9-.1 2.8-.2 2.7 2.6-.3 12.2-.6 24.4-1 36.6-.1 3.2-.2 3.2-3.6 3-7.5-.4-15-.7-22.5-1.1-2.6-.1-2.6-.1-2.7 2.3-.3 16-.5 31.9-.8 47.9l-.9 48.3c-.1 7.6-.3 15.3-.5 22.9l-.9 51.4c-.2 12.1-.5 24.2-.7 36.3-.1 6.7-.3 13.4-.4 20.1 0 2.7 0 2.7 2.9 2.8h16.6c2.8 0 2.9.1 3 3 .1 5.3.1 10.6.2 15.9.1 6.5.4 12.9.5 19.4.1 4.1.4 3.9-3.7 3.9h-84.2c-1.4 0-1.8-.5-1.7-1.9.3-12.7.6-25.4.8-38 0-1.7.6-2.2 2.3-2.2 7.2.1 14.3 0 21.5 0 3 0 3 0 3.1-3.1 0-7.9.1-15.7.1-23.6 0-22.3-.1-44.7.2-67 .2-14.2-.1-28.4.2-42.6.4-22.1.2-44.2.3-66.3v-3.2zM2037.6 330.1c1.6-1.2 2.3-2.7 3.2-3.9 6-8 13-14.8 21.9-19.6 10.9-5.8 22.4-7.3 34.5-4.8 5.9 1.3 10.8 4.4 15 8.8 6.8 7.3 10.3 16.1 12.5 25.6 2.1 9.3 2.6 18.8 2.8 28.3.4 16.6.1 33.1-.1 49.7-.3 20.2-1 40.4-1.6 60.6-.1 3.9-.2 7.7-.2 11.6 0 2.9 0 2.9 2.8 2.9h12.3c2.8 0 2.8 0 2.7 2.7-.6 9.8-1.2 19.7-1.8 29.5-.2 3-.2 3-3.2 3.2-8.6.5-17.1.9-25.7 1.3-12.8.7-25.6 1.3-38.3 2-1.5.1-2.7.1-2.7-2.1-.1-10.9-.4-21.8-.7-32.8-.1-3.4.2-3.1 3-3.4 3.9-.4 7.7-1 11.5-1.4 1.8-.2 2.6-.8 2.6-2.8.2-14.4.4-28.9.8-43.3.5-17.9.6-35.7.7-53.6.1-6.9.3-13.9-.1-20.8-.3-5.4-1.3-10.7-3.6-15.7-5-10.6-15.2-14.2-25.5-8.8-9.8 5.1-15.3 13.6-18.1 24-.8 2.7-1 5.5-1.1 8.4-.2 10.8-.3 21.6-.5 32.4l-.9 51.8c-.2 9.4-.5 18.8-.7 28.2-.1 3.4 0 3.4 3.4 3.8 4.2.5 8.4 1.1 12.6 1.5 1.6.2 2 .8 1.8 2.3-1.3 10.1-2.6 20.3-3.9 30.4-.4 2.9-.4 2.9-3.1 2.8-10.1-.4-20.2-.9-30.3-1.4-10.1-.5-20.2-.9-30.3-1.4-.8 0-1.6-.2-2.5-.1-1.2 0-1.7-.5-1.6-1.7.4-8.1.7-16.2 1-24.3.1-2.6.3-5.2.2-7.7 0-1.7.6-2.2 2.2-2.4 3.3-.3 6.5-.9 9.8-1.4 2.9-.4 3-.4 3.1-3.5.2-6.2.4-12.4.5-18.7.3-17.9.5-35.7.9-53.6.3-15.2.6-30.3.4-45.5-.1-5.6-.7-11.2-2.6-16.6-1.2-3.4-2.9-6.4-5.3-9-4.5-4.9-10.2-5.4-16.2-4.6-4.6.6-8.7 2.7-12.1 6-6.4 6.3-9.5 14.2-11.5 22.6-1.9 7.9-2.6 16-3 24.1-.8 18.7-1.3 37.3-1.4 56-.1 12.7-.5 25.4-.7 38-.1 4.2 0 4.2 4.4 4.2h10.6c1.5 0 2.1.4 2.1 2v31.7c0 1.6-.6 2-2.1 2-5.4 0-10.8.2-16.2.2-16.6.2-33.1.4-49.7.5h-2.5c-1.1 0-1.4-.5-1.4-1.5v-2.1-33.1c0-3.7 0-3.7 3.9-3.9 4.9-.3 9.8-.6 14.8-.9 2.9-.2 3-.2 3-2.9-.1-15.2-.3-30.3-.5-45.5-.1-6.9-.1-13.9-.2-20.8l-.3-33.1-.3-38.1c0-.7.1-1.4-.4-2.1-5-1-10.2-.7-15.3-1.3-4.5-.5-9.1-.6-13.7-.9-2.7-.2-2.7-.2-2.7-2.9l.6-25.7c.1-2.3.2-4.7.2-7 0-1.6.6-2.2 2.3-2.2 9.5-.2 19-.6 28.5-.9 10-.4 19.9-.7 29.9-1.1 2.5-.1 2.7.1 2.8 2.7.3 8.9.7 17.8 1 27 1.5-.5 1.8-1.9 2.4-2.9 7.7-12.1 18-20.9 31.5-26 8.3-3.1 16.9-3.8 25.6-2.2 9.3 1.7 16.4 6.7 21.4 14.7 2.8 4.5 4.7 9.4 6.3 14.5.3 1.3.7 2.5 1.1 4z"/><path class="st9" d="M1359.3 577c1.9.8 3.8.4 5.6.5 3.4.3 6.8.5 10.2.6 1.5 0 2 .7 2 2.1 0 10.8-.1 21.6 0 32.4 0 2.1-1.1 2.2-2.6 2.2l-25.7.3c-14.7.2-29.4.4-44 .5h-1.4c-1.7.2-2.2-.6-2.2-2.2-.2-7.2-.5-14.3-.8-21.5-.1-2.8-.2-5.6-.4-8.4-.1-1.7.4-2.5 2.3-2.6 5.3-.4 10.5-1 15.8-1.6 2.9-.3 3-.4 3.6-3.2 3.7-15.6 7.3-31.3 11.1-46.9.5-2 .3-3.9-.3-5.8-16.7-58.1-33.3-116.2-50-174.2-1.2-4.2-2.4-8.3-3.6-12.5-.8-2.9-.9-2.9-3.8-2.9h-14.8c-2.3 0-2.4-.1-2.2-2.4.6-10.9 1.2-21.8 1.9-32.7.1-2.4.3-2.3 2.7-2.3l55.7.6c4.5 0 8.9.2 13.4.1 1.8 0 2.5.5 2.5 2.4.1 10.1.5 20.2.7 30.3.1 3.2 0 3.2-3.2 3.5-4.3.4-8.7.7-13 1.1-3 .3-3 .3-2.3 3.1 9.3 35.8 18.7 71.5 28 107.3 1.5 5.9 3.1 11.8 4.7 17.7.3 1 .6 2 1.1 3.8 1.6-8 3-15.2 4.5-22.4 3.9-19.9 7.7-39.9 11.6-59.8 2.9-14.9 5.8-29.7 8.7-44.6.5-2.4.4-2.6-2.1-3-4-.6-7.9-1-11.9-1.5-2.7-.3-2.7-.3-2.9-2.9-.6-10-1.3-19.9-1.9-29.9-.2-2.7-.2-2.7 2.6-2.8 11.5-.6 23-.3 34.5-.5 11.6-.2 23.3-.3 34.9-.4h2.5c1 0 1.6.4 1.5 1.4v36.3c0 2.8 0 2.8-2.9 3-5.2.3-10.3.8-15.5 1-2.3.1-2.9 1.1-3.4 3.1l-7.8 35.4c-5.6 25.3-11.1 50.7-16.7 76-8.6 39.1-17.2 78.2-25.8 117.2-.3 1.6-.9 3.3-.9 5.1z"/><path class="st8" d="M2186.6 511.5c-1.3 5.2-2.6 10.1-3.9 15.1-.7 2.9-.7 2.9-3.7 2.7-7.4-.6-14.7-1.2-22.1-1.8-2.8-.2-2.8-.3-2.7-2.8.5-16.5 1.1-33.1 1.6-49.6.2-6.1.4-12.2.4-18.3 0-1.7.4-2.6 2.3-2.5 13.1.2 26.3.4 39.7.6.2 3.1-.4 6.1-.5 9-.2 7 1.1 13.7 4.6 20 5.7 10.1 23.2 14.9 32.5.7 6.3-9.7 5.5-19.6.4-29.4-3.8-7.4-9.7-13.2-16.3-18.2-7.9-6-16.6-10.6-25.3-15.2-7.6-4-14.8-8.6-21.1-14.6-8.7-8.3-14.1-18.4-16.4-30.1-1.9-9.6-2.6-19.3-1.8-29.1 1.5-17.7 10-31.3 24.4-41.2 10.3-7.1 21.8-10.2 34.2-10.3 7.3 0 14.1 2 20.3 6.1 4.8 3.2 9.2 7 13.2 11.1.5.6.9 1.4 2.1 1.6 1.3-2.8 1.6-6 2.5-8.9.7-2.2 1.2-4.5 1.7-6.8.3-1.4.9-2.2 2.6-2.1 7.8.7 15.7 1.3 23.5 1.8 1.9.1 2.3 1 2.2 2.7-.2 6.8-.3 13.6-.5 20.4l-.9 26.7c-.2 6.8-.3 13.6-.6 20.4-.1 2.9-.2 2.9-3 2.9-12.3-.1-24.7-.1-37-.3-2.3 0-2.3-.1-2.1-2.4.4-4.9 1-9.8.1-14.7-.8-4.3-2.1-8.4-4.3-12.2-5.9-10-22-13.9-31.3-1.9-5.8 7.5-6.6 15.8-4.3 24.7 1.9 7.1 5.9 13 10.9 18.3 7.4 7.9 16.5 13.5 26 18.5 6 3.2 12.1 6.2 17.7 10.1 16.4 11.2 26 26.4 28.3 46.2 1 8.7 1.7 17.3.1 26-3.2 16.9-12.8 29.5-27.6 38.1-10.7 6.2-22.2 8.7-34.5 7.7-5.6-.5-10.7-2.4-15.5-5.4-5.2-3.3-9.8-7.3-14-11.7-.3-.9-.6-1.5-1.9-1.9z"/><path class="st10" d="M1821.8 297.1v29.6c15.7-12 31.4-22.5 49.8-27.9 1 1 .7 2 .7 2.9v44.8c0 3.4.6 2.8-3.1 3.8-13 3.7-24.1 10.5-32.3 21.4-5.7 7.6-8.5 16-8.4 25.6.1 13.5 0 27-.1 40.5-.1 13.4-.4 26.8-.7 40.2 0 1.1.1 2.1 0 3.2-.2 1.7.7 2.3 2.3 2.3 4.5.1 8.9.2 13.4.4 4.7.2 9.4.4 14.1.5 1.6 0 2.3.5 2.3 2.2 0 11.9-.1 23.7 0 35.6 0 1.7-.7 2.2-2.3 2.2-8.1.1-16.2.2-24.3.4-16.2.4-32.4.8-48.6 1.1l-21.1.3c-2.9.1-5.9.1-8.8.3-1.7.1-2.3-.5-2.1-2.2.3-3.4.5-6.8.8-10.2.7-9 1.3-18 2-27 .2-2.5.2-2.5 3-2.6 7.7-.3 15.5-.6 23.2-1 2.9-.1 2.9-.2 3-3l1.2-58.1c.5-21.8.9-43.7 1.4-65.5.1-3.9.3-7.7.4-11.6.1-3.1 0-3.2-3-3.1l-16.2.6c-.5 0-.9.1-1.4.1-2.5 0-2.5 0-2.7-2.4-.3-6.1-.5-12.2-.7-18.3-.2-5.2-.4-10.3-.5-15.5-.2-4.2-.2-4.3 4.2-4.7 7.8-.8 15.7-1.5 23.5-2.3 9.2-.9 18.5-1.8 27.7-2.7.9-.1 1.9-.4 3.3.1z"/><path class="st11" d="M1475.5 368.6v-59.7c0-17.6-.1-35.3-.1-52.9 0-1.6-.4-2.1-2-2-8.1.4-16.1.6-24.2.9-1.2 0-1.7-.2-1.6-1.6.8-13.4 1.5-26.9 2.1-40.3.1-1.4.4-1.7 1.8-1.8l34.5-.3c20-.2 40-.5 60-.7 9.7-.1 19.5-.2 29.2-.4 18-.2 36-.5 54-.8 1.6 0 2 .3 2 2 .3 17.6.7 35.2 1.2 52.9.3 11.7.6 23.5 1 35.2 0 1.1-.1 1.6-1.4 1.6-11.5.6-23.1 1.4-34.6 2.1-1.5.1-1.8-.4-1.8-1.8l-2.1-47.7c0-1.1-.4-1.3-1.4-1.3-16.8.4-33.6.8-50.5 1.2-8.6.2-17.3.4-25.9.5-1.4 0-1.7.3-1.7 1.7.2 14.8.3 29.5.5 44.3.1 16.5.2 32.9.4 49.4 0 1.8.2 3.6.1 5.3-.1 1.3.4 1.6 1.7 1.6H1580.3c1.4 0 1.7.4 1.7 1.8-.1 9.7-.1 19.4 0 29 0 1.7-.8 1.7-2 1.8-10.6.6-21.2 1.3-31.9 1.9-10.4.6-20.9 1.3-31.3 1.8-1.3.1-1.3.6-1.3 1.6.2 13.7.3 27.4.4 41.1.1 7 .1 14.1.2 21.1.1 8.3.2 16.7.2 25 0 1.5.5 1.9 1.9 2 9.5.4 18.9 1 28.4 1.5 1.3.1 1.6.6 1.6 1.8 0 12.2-.1 24.5 0 36.7 0 1.4-.4 1.7-1.8 1.7l-44.4.9c-16 .4-31.9.7-47.9 1.1-3.3.1-3.4.1-3.5-3.2-.3-10.8-.7-21.5-1-32.3-.1-2.2 0-4.4-.3-6.6-.2-1.7.5-1.8 1.9-1.8 7.6.1 15.2 0 22.8.1 1.5 0 1.8-.4 1.8-1.8-.1-26.1-.1-52.2-.1-78.3v-34.5c-.1.2-.1.2-.2.2z"/><path class="st11" d="M1641.9 348.4c2.9-6 6.1-11.8 10.4-16.8 4.8-5.6 10.4-10.2 17.6-12.4 4.3-1.3 8.7-1.1 13-.8 6.8.4 13.4 1.6 19.5 4.7 8.9 4.5 14.4 11.7 17.5 21 2.2 6.5 3.1 13.3 3.6 20.1 1.2 16.8.6 33.5.5 50.3 0 7.5-.1 14.9-.2 22.4-.3 15.2-.9 30.4-2.2 45.6-.2 2.2-.2 4.4-.5 6.6-.2 1.2.2 1.5 1.3 1.5h18.6c1.2 0 1.7.2 1.6 1.6-.3 9.6-.5 19.2-.7 28.8 0 1.5-.5 2-2 2.1-11.8 1.1-23.7 2.3-35.5 3.4-1.3.1-2.9.9-3.8.1-.9-.8-.5-2.5-.6-3.8-.6-6.3-1.1-12.5-1.7-19.2-1 1-1.6 1.8-2.4 2.5-10.3 9.7-22 16.9-36 19.7-13.2 2.6-25.7 1-36.4-8.1-7-5.9-11.3-13.7-13.7-22.4-4.1-14.9-5.3-30.1-1.1-45.1 6.2-22 21.1-35.2 43.2-40.2 12.1-2.7 24.4-2.6 36.4 1.1 1 .3 1.2 0 1.2-.9.5-6.8.3-13.7-.1-20.5-.5-7.5-1.3-14.9-3.3-22.2-1-3.9-2.4-7.6-4.7-11-2.7-3.9-6-4.9-10.4-3.2-3.8 1.5-6.6 4.2-9.2 7.3-5.4 6.3-8.8 13.8-12.2 21.3-2.1 4.7-3.9 9.5-5.5 14.4-.3.9-.6 1.3-1.7 1.2-10.6-.5-21.1-1-31.7-1.5-1.2 0-1.3-.5-1.3-1.5l-.3-22.8c-.2-14-.4-27.9-.7-41.9 0-2.5-.1-5-.2-7.6 0-.9.3-1.1 1.1-1.1 10.2-.2 20.4-.4 30.6-.7 1.6 0 1.8.5 1.8 1.9-.1 8.2 0 16.3 0 24.5.2.5.2 1.1.2 1.6zm48.9 114.5c0-4.1-.3-8.1.1-12.2.3-3.4-1.4-5.2-4-6.7-1-.6-2.1-1.1-3.3-1.4-8.9-2.3-17.8-2.2-26.5 1-6.9 2.5-12.4 6.8-15 13.9-2.6 7-3.1 14.1-1.1 21.3 2.1 7.4 6.6 12.6 14.6 14 4.3.8 8.6.2 12.9-.6 6.8-1.2 13.1-3.4 18.5-7.9 2.6-2.1 3.9-4.8 3.8-8.2v-13.2z"/></svg>